<svg width="88" height="88" viewBox="0 0 88 88" fill="none" xmlns="http://www.w3.org/2000/svg">
<path d="M40.0541 55.6217H6.75676C5.49519 55.6217 4.28529 55.1205 3.39322 54.2284C2.50116 53.3364 2 52.1265 2 50.8649C2 49.6033 2.50116 48.3934 3.39322 47.5014C4.28529 46.6093 5.49519 46.1082 6.75676 46.1082H40.0541C41.3156 46.1082 42.5255 46.6093 43.4176 47.5014C44.3097 48.3934 44.8108 49.6033 44.8108 50.8649C44.8108 52.1265 44.3097 53.3364 43.4176 54.2284C42.5255 55.1205 41.3156 55.6217 40.0541 55.6217ZM6.75676 48.4865C6.12597 48.4865 5.52102 48.7371 5.07499 49.1831C4.62896 49.6292 4.37838 50.2341 4.37838 50.8649C4.37838 51.4957 4.62896 52.1006 5.07499 52.5467C5.52102 52.9927 6.12597 53.2433 6.75676 53.2433H40.0541C40.6848 53.2433 41.2898 52.9927 41.7358 52.5467C42.1819 52.1006 42.4324 51.4957 42.4324 50.8649C42.4324 50.2341 42.1819 49.6292 41.7358 49.1831C41.2898 48.7371 40.6848 48.4865 40.0541 48.4865H6.75676Z" fill="black"/>
<path d="M40.0541 48.4865H6.75679C6.4414 48.4865 6.13893 48.3612 5.91591 48.1382C5.69289 47.9152 5.5676 47.6127 5.5676 47.2973V19.9459C5.56949 18.3696 6.19654 16.8583 7.31122 15.7436C8.42589 14.6289 9.93717 14.0019 11.5135 14H35.2973C36.8737 14.0019 38.385 14.6289 39.4997 15.7436C40.6143 16.8583 41.2414 18.3696 41.2433 19.9459V47.2973C41.2433 47.6127 41.118 47.9152 40.895 48.1382C40.672 48.3612 40.3695 48.4865 40.0541 48.4865ZM7.94598 46.1081H38.8649V19.9459C38.8649 18.9998 38.489 18.0923 37.82 17.4233C37.1509 16.7542 36.2435 16.3784 35.2973 16.3784H11.5135C10.5674 16.3784 9.65995 16.7542 8.9909 17.4233C8.32185 18.0923 7.94598 18.9998 7.94598 19.9459V46.1081Z" fill="black"/>
<path d="M22.2163 54.4326H24.5946V72.2705H22.2163V54.4326Z" fill="black"/>
<path d="M16.2703 71.0811H30.5406V73.4594H16.2703V71.0811Z" fill="black"/>
<path d="M80.4865 55.6217H47.1892C45.9276 55.6217 44.7177 55.1205 43.8256 54.2284C42.9336 53.3364 42.4324 52.1265 42.4324 50.8649C42.4324 49.6033 42.9336 48.3934 43.8256 47.5014C44.7177 46.6093 45.9276 46.1082 47.1892 46.1082H80.4865C81.748 46.1082 82.9579 46.6093 83.85 47.5014C84.7421 48.3934 85.2432 49.6033 85.2432 50.8649C85.2432 52.1265 84.7421 53.3364 83.85 54.2284C82.9579 55.1205 81.748 55.6217 80.4865 55.6217ZM47.1892 48.4865C46.5584 48.4865 45.9534 48.7371 45.5074 49.1831C45.0614 49.6292 44.8108 50.2341 44.8108 50.8649C44.8108 51.4957 45.0614 52.1006 45.5074 52.5467C45.9534 52.9927 46.5584 53.2433 47.1892 53.2433H80.4865C81.1172 53.2433 81.7222 52.9927 82.1682 52.5467C82.6143 52.1006 82.8648 51.4957 82.8648 50.8649C82.8648 50.2341 82.6143 49.6292 82.1682 49.1831C81.7222 48.7371 81.1172 48.4865 80.4865 48.4865H47.1892Z" fill="black"/>
<path d="M80.4865 48.4865H47.1892C46.8738 48.4865 46.5713 48.3612 46.3483 48.1382C46.1253 47.9152 46 47.6127 46 47.2973V19.9459C46.0019 18.3696 46.6289 16.8583 47.7436 15.7436C48.8583 14.6289 50.3696 14.0019 51.9459 14H75.7297C77.3061 14.0019 78.8174 14.6289 79.9321 15.7436C81.0467 16.8583 81.6738 18.3696 81.6757 19.9459V47.2973C81.6757 47.6127 81.5504 47.9152 81.3274 48.1382C81.1044 48.3612 80.8019 48.4865 80.4865 48.4865ZM48.3784 46.1081H79.2973V19.9459C79.2973 18.9998 78.9214 18.0923 78.2524 17.4233C77.5833 16.7542 76.6759 16.3784 75.7297 16.3784H51.9459C50.9998 16.3784 50.0923 16.7542 49.4233 17.4233C48.7542 18.0923 48.3784 18.9998 48.3784 19.9459V46.1081Z" fill="black"/>
<path d="M62.6487 54.4326H65.027V72.2705H62.6487V54.4326Z" fill="black"/>
<path d="M56.7027 71.0811H70.973V73.4594H56.7027V71.0811Z" fill="black"/>
</svg>
