<svg width="32" height="23" viewBox="0 0 32 23" fill="none" xmlns="http://www.w3.org/2000/svg">
<path d="M15.8681 7.31338L27.1427 18.2742C27.3371 18.4649 27.3457 18.7802 27.1581 18.9788C26.9709 19.1773 26.6607 19.1841 26.4649 18.9944L15.5293 8.36342L4.59471 18.9956C4.39896 19.1854 4.08877 19.1786 3.90159 18.9801C3.81064 18.8837 3.76565 18.7592 3.76564 18.6356C3.76563 18.5042 3.81636 18.3739 3.9169 18.2756L15.1903 7.31342C15.3799 7.12946 15.6786 7.12944 15.8681 7.31338Z" fill="#D3D3D3"/>
<path d="M16.217 14.4388L23.4334 21.4544C23.5578 21.5765 23.5634 21.7783 23.4433 21.9054C23.3235 22.0325 23.1249 22.0368 22.9996 21.9154L16.0001 15.1109L9.0013 21.9162C8.876 22.0376 8.67746 22.0333 8.55766 21.9062C8.49944 21.8446 8.47064 21.7649 8.47064 21.6857C8.47063 21.6016 8.5031 21.5182 8.56745 21.4553L15.7831 14.4388C15.9045 14.3211 16.0957 14.3211 16.217 14.4388Z" fill="#D3D3D3"/>
<path d="M16.4607 0.188515L31.7945 15.0957C32.0588 15.355 32.0706 15.7838 31.8154 16.0539C31.5608 16.3239 31.139 16.3332 30.8727 16.0751L15.9998 1.6166L1.12842 16.0768C0.862183 16.3349 0.440317 16.3257 0.185743 16.0557C0.0620524 15.9246 0.000855449 15.7553 0.00084632 15.5872C0.000836615 15.4085 0.0698253 15.2311 0.206565 15.0975L15.5388 0.188567C15.7966 -0.0616233 16.2028 -0.0616458 16.4607 0.188515Z" fill="#D3D3D3"/>
</svg>
