<svg width="31" height="31" viewBox="0 0 31 31" fill="none" xmlns="http://www.w3.org/2000/svg">
<path fill-rule="evenodd" clip-rule="evenodd" d="M26.598 29.4264C27.379 30.2075 28.6454 30.2075 29.4264 29.4264C30.2075 28.6454 30.2075 27.3791 29.4264 26.598L18.1127 15.2843L29.4264 3.97059C30.2075 3.18955 30.2075 1.92322 29.4264 1.14217C28.6454 0.361117 27.379 0.361119 26.598 1.14217L15.2843 12.4559L3.97056 1.14217C3.18951 0.361118 1.92318 0.361117 1.14214 1.14217C0.361086 1.92322 0.361087 3.18955 1.14214 3.97059L12.4558 15.2843L1.14214 26.598C0.361087 27.3791 0.361086 28.6454 1.14214 29.4264C1.92318 30.2075 3.18951 30.2075 3.97056 29.4264L15.2843 18.1127L26.598 29.4264Z" fill="#0D0C1C"/>
</svg>
