<svg xmlns="http://www.w3.org/2000/svg" viewBox="0 0 182.22 41"><path d="M12.9 10.7H1.27A1.27 1.27 0 000 12v17.1a1.27 1.27 0 001.27 1.27h2.65a1.27 1.27 0 001.27-1.27v-4.47a1.27 1.27 0 011.27-1.27h5.63a1.26 1.26 0 001.26-1.27V20a1.26 1.26 0 00-1.26-1.27H6.46a1.27 1.27 0 01-1.27-1.27v-.86a1.27 1.27 0 011.27-1.27h6.44a1.27 1.27 0 001.27-1.27V12a1.27 1.27 0 00-1.27-1.3zM29 27.34h-.1c-.47 0-.92-.19-.92-.84v-3.76c0-4.8-2.75-6.28-7-6.28a18.33 18.33 0 00-5 .81.39.39 0 00-.27.37v3.15a.39.39 0 00.53.37 12 12 0 014.18-.83c1.91 0 2.81.73 2.81 1.68a.4.4 0 01-.46.39 14.07 14.07 0 00-2.46-.22c-2.61 0-5.84 1-5.84 4.43 0 2.61 2.11 4.15 4.69 4.15a7.21 7.21 0 004.38-1.4.39.39 0 01.53.08 3.71 3.71 0 003 1.18 7.09 7.09 0 002.15-.32.39.39 0 00.27-.37v-2.2a.39.39 0 00-.49-.39zm-5.82-.71A.4.4 0 0123 27a3.55 3.55 0 01-2.05.59 1.45 1.45 0 01-1.63-1.32c0-1.07 1-1.46 2.14-1.46a5.9 5.9 0 011.4.17.39.39 0 01.31.38zm17.49-.23a7.9 7.9 0 01-2.17.3c-1.82 0-3.5-1-3.5-3.09 0-2.3 1.71-3.11 3.59-3.11a6.85 6.85 0 011.91.29 1.18 1.18 0 001.5-1.13v-1.53a1.18 1.18 0 00-.76-1.1 9.83 9.83 0 00-3.39-.6c-3.84 0-7.77 2.16-7.77 7.46 0 4.77 3.67 6.87 7.43 6.87a12.19 12.19 0 003.82-.59 1.18 1.18 0 00.81-1.12v-1.51a1.17 1.17 0 00-1.47-1.14zm10.24-9.94a6.83 6.83 0 00-7.07 7.15c0 4.63 3.56 7.15 8 7.15a15.36 15.36 0 004.51-.59.7.7 0 00.49-.67v-2.08a.69.69 0 00-.87-.67 11.43 11.43 0 01-3 .37 5.93 5.93 0 01-3.27-.81.7.7 0 01.37-1.31h6.83a.7.7 0 00.69-.57c.66-3.89-1.17-7.97-6.68-7.97zm1.48 5.72h-2.94a.7.7 0 01-.63-1A2.36 2.36 0 0151 19.91a1.93 1.93 0 012 1.4.69.69 0 01-.61.87zm17.7 4.14a8.34 8.34 0 01-2.46.38c-1.83 0-3.51-1-3.51-3.09 0-2.3 1.71-3.11 3.59-3.11a7 7 0 012.22.38.91.91 0 001.2-.87V18a.91.91 0 00-.59-.86 9.84 9.84 0 00-3.54-.71c-3.84 0-7.77 2.16-7.77 7.46 0 4.77 3.68 6.87 7.44 6.87a12.23 12.23 0 004-.66.92.92 0 00.6-.86v-2a.91.91 0 00-1.18-.92zm17.33 1.02h-.13c-.47 0-.92-.19-.92-.84v-3.76c0-4.8-2.75-6.28-7-6.28a18.19 18.19 0 00-5 .81.38.38 0 00-.28.37v3.15a.39.39 0 00.53.37 12.09 12.09 0 014.18-.83c1.91 0 2.81.73 2.81 1.68a.4.4 0 01-.46.39 14.07 14.07 0 00-2.46-.22c-2.61 0-5.83 1-5.83 4.43 0 2.61 2.1 4.15 4.68 4.15a7.21 7.21 0 004.38-1.4.39.39 0 01.53.08 3.71 3.71 0 003 1.18 7.09 7.09 0 002.15-.32.39.39 0 00.27-.37v-2.2a.39.39 0 00-.45-.39zm-5.82-.71a.37.37 0 01-.17.32 3.53 3.53 0 01-2.05.59 1.44 1.44 0 01-1.62-1.32c0-1.07 1-1.46 2.13-1.46a6.05 6.05 0 011.41.17.4.4 0 01.3.38zM94 20.64c0-.56.7-.68 1.29-.68a9.45 9.45 0 013.4.73 1 1 0 001.34-.91v-1.54a1 1 0 00-.59-.9 11.76 11.76 0 00-4.48-.88c-3 0-5.87 1-5.87 4.29 0 4.85 7.07 4 7.07 5.75 0 .48-.59.67-1.77.67a10.64 10.64 0 01-3.8-.73 1 1 0 00-1.36.9v1.6a1 1 0 00.55.87 11.59 11.59 0 004.87 1c3.39 0 6.42-1 6.42-4.34C101 21.42 94 22.52 94 20.64zm20.19 8.27L113 27.07a.93.93 0 00-1-.39 6.84 6.84 0 01-1.53.16c-1.21 0-1.77-.59-1.77-1.66v-3.44a.94.94 0 01.93-.94h3.27a.93.93 0 00.82-1.37l-1.11-2.06a.92.92 0 00-.82-.49h-2.16a.94.94 0 01-.93-.94v-4.3a.94.94 0 00-.94-.94h-2.9a.94.94 0 00-.93.94v4.3a.94.94 0 01-.93.94h-.27a.92.92 0 00-.93.93v2.06a.92.92 0 00.93.93h.27a.94.94 0 01.93.94v4.4c0 3.56 2.44 4.62 5 4.62a26.35 26.35 0 004.64-.43.92.92 0 00.62-1.42zm43.12-10.82a11.46 11.46 0 1011.45 11.46 11.47 11.47 0 00-11.45-11.46zm0 21.11a9.65 9.65 0 119.69-9.65 9.66 9.66 0 01-9.69 9.65zm-26.02-27.59a.9.9 0 00-.91-.9h-15.65a.9.9 0 100 1.8h15.65a.9.9 0 00.91-.9zm12.03 16.58h-18.69a.9.9 0 100 1.8h18.69a.9.9 0 100-1.8z"/><path d="M180 16.17a9.52 9.52 0 00-7-2.65 9.4 9.4 0 00-3.69-6.62 10.51 10.51 0 00-9.11-1.41 9.29 9.29 0 00-3.17-3.6A12.07 12.07 0 00149.59 0a13 13 0 00-8 3.32 11.43 11.43 0 00-3.65 8 8.35 8.35 0 00-3.47 1.77 9.35 9.35 0 00-3.1 5.91h-11.32a.9.9 0 100 1.8h18.8a.9.9 0 100-1.8h-5.67a7.63 7.63 0 012.49-4.54A6.55 6.55 0 01139 13a9.67 9.67 0 013 0 .9.9 0 001-.75.9.9 0 00-.74-1 12.51 12.51 0 00-2.45-.15c.49-5.92 5.36-8.94 9.91-9.24 4.33-.29 9 1.81 9.73 7.16a.9.9 0 101.79-.24 13.4 13.4 0 00-.33-1.58 8.78 8.78 0 017.38 1.19c2.28 1.67 3.34 4.56 3 8.37a.91.91 0 00.83 1h.07a.9.9 0 00.9-.83c0-.54.06-1.05 0-1.54a7.55 7.55 0 015.53 2.08 6.54 6.54 0 011.8 4.53c0 4.07-2.61 6.59-5 6.59h-3.81a.9.9 0 000 1.8h3.81c4.22 0 6.83-4.35 6.83-8.39a8.37 8.37 0 00-2.25-5.83z"/><path d="M153.14 24.88a.9.9 0 00-.9.9v8.11a.9.9 0 101.8 0v-8.11a.9.9 0 00-.9-.9zm9.44 3.86L157.12 25a1.25 1.25 0 00-1.86 1v7.52a1.25 1.25 0 001.86 1.05l5.46-3.77a1.21 1.21 0 000-2.06z"/></svg>