<svg width="88" height="88" viewBox="0 0 88 88" fill="none" xmlns="http://www.w3.org/2000/svg">
<g clip-path="url(#clip0)">
<path d="M40.3334 45.2064V5.50002C40.3334 4.48802 39.512 3.66663 38.5 3.66663C17.27 3.66663 0 22.583 0 45.8332C0 69.0835 18.9164 88 42.1666 88C52.569 88 58.1972 86.1154 65.3326 80.2486C66.099 79.618 66.2236 78.4922 65.615 77.7076L40.3334 45.2064ZM42.1666 84.3334C20.9366 84.3334 3.66661 67.0634 3.66661 45.8334C3.66661 25.2854 18.3076 8.44441 36.6666 7.3848V45.8334C36.6666 46.2404 36.8022 46.6364 37.0552 46.959L61.6072 78.5254C55.8176 82.9474 50.9886 84.3334 42.1666 84.3334Z" fill="#0D0C1C"/>
<path d="M45.8334 44H86.1668C87.1788 44 88.0002 43.1786 88.0002 42.1666C88 18.9164 69.0836 0 45.8334 0C44.8214 0 44 0.821391 44 1.83339V42.1668C44 43.1786 44.8214 44 45.8334 44ZM47.6666 3.71061C67.441 4.642 83.358 20.559 84.2892 40.3332H47.6666V3.71061Z" fill="#0D0C1C"/>
<path d="M86.1667 47.6666H49.5001C48.7961 47.6666 48.1471 48.0736 47.8427 48.7116C47.5383 49.3496 47.6301 50.105 48.0737 50.6512L71.9071 80.1568C72.2261 80.5565 72.6955 80.7985 73.2051 80.8352C73.2491 80.8388 73.2895 80.8388 73.3335 80.8388C73.7955 80.8388 74.2429 80.6628 74.5839 80.3475C83.1087 72.3946 88.0001 61.1526 88.0001 49.5C88.0001 48.488 87.1787 47.6666 86.1667 47.6666ZM73.4911 76.2814L53.3391 51.3334H84.2895C83.8385 60.654 79.9811 69.5676 73.4911 76.2814Z" fill="#0D0C1C"/>
</g>
<defs>
<clipPath id="clip0">
<rect width="88" height="88" fill="white"/>
</clipPath>
</defs>
</svg>
