<svg width="88" height="92" viewBox="0 0 88 92" fill="none" xmlns="http://www.w3.org/2000/svg">
<path d="M17.926 63.5556C8.04245 63.5556 0 55.5131 0 45.6296C0 35.7461 8.04245 27.7036 17.926 27.7036C27.8095 27.7036 35.852 35.7461 35.852 45.6296C35.852 55.5131 27.8095 63.5556 17.926 63.5556ZM17.926 30.9628C9.83953 30.9628 3.2592 37.5431 3.2592 45.6296C3.2592 53.7161 9.83953 60.2964 17.926 60.2964C26.0125 60.2964 32.5928 53.7161 32.5928 45.6296C32.5928 37.5431 26.0125 30.9628 17.926 30.9628Z" fill="#0D0C1C"/>
<path d="M17.926 53.7781C17.0264 53.7781 16.2968 53.0478 16.2968 52.1481V39.1113C16.2968 38.2116 17.0264 37.4813 17.926 37.4813C18.8257 37.4813 19.556 38.2116 19.556 39.1113V52.1481C19.556 53.0478 18.8257 53.7781 17.926 53.7781Z" fill="#0D0C1C"/>
<path d="M24.4444 47.2588H11.4076C10.5079 47.2588 9.77762 46.5293 9.77762 45.6296C9.77762 44.73 10.5079 43.9996 11.4076 43.9996H24.4444C25.3441 43.9996 26.0744 44.73 26.0744 45.6296C26.0744 46.5293 25.3441 47.2588 24.4444 47.2588Z" fill="#0D0C1C"/>
<path d="M79.8516 16.2962H73.3332C72.4335 16.2962 71.7039 15.5666 71.7039 14.6669V8.14853C71.7039 7.24887 72.4335 6.51855 73.3332 6.51855H79.8516C80.7512 6.51855 81.4816 7.24887 81.4816 8.14853V14.6669C81.4816 15.5666 80.7512 16.2962 79.8516 16.2962ZM74.9632 13.037H78.2224V9.77776H74.9632V13.037Z" fill="#0D0C1C"/>
<path d="M86.37 22.8144H66.8148C65.9151 22.8144 65.1856 22.0849 65.1856 21.1852V1.62997C65.1856 0.730318 65.9151 0 66.8148 0H86.37C87.2697 0 88 0.730318 88 1.62997V21.1852C88 22.0849 87.2697 22.8144 86.37 22.8144ZM68.4448 19.5552H84.7408V3.2592H68.4448V19.5552Z" fill="#0D0C1C"/>
<path d="M79.8516 84.7407H73.3332C72.4335 84.7407 71.7039 84.0104 71.7039 83.1108V76.5924C71.7039 75.6927 72.4335 74.9631 73.3332 74.9631H79.8516C80.7512 74.9631 81.4816 75.6927 81.4816 76.5924V83.1108C81.4816 84.0104 80.7512 84.7407 79.8516 84.7407ZM74.9632 81.4815H78.2224V78.2223H74.9632V81.4815Z" fill="#0D0C1C"/>
<path d="M86.37 91.2593H66.8148C65.9151 91.2593 65.1856 90.5289 65.1856 89.6293V70.0741C65.1856 69.1744 65.9151 68.4441 66.8148 68.4441H86.37C87.2697 68.4441 88 69.1744 88 70.0741V89.6293C88 90.5289 87.2697 91.2593 86.37 91.2593ZM68.4448 88.0001H84.7408V71.7033H68.4448V88.0001Z" fill="#0D0C1C"/>
<path d="M79.8516 50.5187H73.3332C72.4335 50.5187 71.7039 49.7884 71.7039 48.8887V42.3703C71.7039 41.4707 72.4335 40.7404 73.3332 40.7404H79.8516C80.7512 40.7404 81.4816 41.4707 81.4816 42.3703V48.8887C81.4816 49.7884 80.7512 50.5187 79.8516 50.5187ZM74.9632 47.2588H78.2224V43.9996H74.9632V47.2588Z" fill="#0D0C1C"/>
<path d="M86.37 57.0372H66.8148C65.9151 57.0372 65.1856 56.3069 65.1856 55.4072V35.852C65.1856 34.9524 65.9151 34.222 66.8148 34.222H86.37C87.2697 34.222 88 34.9524 88 35.852V55.4072C88 56.3069 87.2697 57.0372 86.37 57.0372ZM68.4448 53.778H84.7408V37.4812H68.4448V53.778Z" fill="#0D0C1C"/>
<path d="M27.7051 34.2221C27.1269 34.2221 26.566 33.914 26.2713 33.3687C25.8431 32.578 26.1363 31.5888 26.9278 31.1598L66.039 9.97539C66.8312 9.54495 67.8189 9.83962 68.2471 10.6319C68.676 11.4219 68.3828 12.411 67.5906 12.84L28.4794 34.0252C28.2332 34.1587 27.9677 34.2221 27.7051 34.2221Z" fill="#0D0C1C"/>
<path d="M66.8133 81.4816C66.5508 81.4816 66.2852 81.4174 66.039 81.2839L26.9278 60.0987C26.1363 59.6705 25.8409 58.6813 26.2713 57.8906C26.7003 57.0991 27.6895 56.8052 28.4795 57.2341L67.5907 78.4193C68.3829 78.8475 68.6776 79.8367 68.2471 80.6274C67.9525 81.1735 67.3915 81.4816 66.8133 81.4816Z" fill="#0D0C1C"/>
<path d="M66.8148 47.2588H60.2964C59.3967 47.2588 58.6664 46.5293 58.6664 45.6296C58.6664 44.73 59.3967 43.9996 60.2964 43.9996H66.8148C67.7144 43.9996 68.4448 44.73 68.4448 45.6296C68.4448 46.5293 67.7144 47.2588 66.8148 47.2588ZM60.2964 47.2588H47.2596C46.3599 47.2588 45.6296 46.5293 45.6296 45.6296C45.6296 44.73 46.3599 43.9996 47.2596 43.9996H60.2964C61.196 43.9996 60.6336 44.73 60.6336 45.6296C60.6336 46.5293 61.196 47.2588 60.2964 47.2588ZM47.2596 47.2588H34.222C33.3231 47.2588 32.5928 46.5293 32.5928 45.6296C32.5928 44.73 33.3231 43.9996 34.222 43.9996H47.2596C48.1585 43.9996 47.6475 44.73 47.6475 45.6296C47.6475 46.5293 48.1585 47.2588 47.2596 47.2588Z" fill="#0D0C1C"/>
</svg>
