<svg width="88" height="88" viewBox="0 0 88 88" fill="none" xmlns="http://www.w3.org/2000/svg">
<path d="M61.723 63.8362C57.2354 63.8362 53.597 67.4734 53.597 71.961C53.597 76.4496 57.2343 80.0875 61.7218 80.0875C66.2105 80.0875 69.8478 76.4496 69.8478 71.9621C69.8438 67.4757 66.2082 63.8407 61.723 63.8362ZM61.723 76.4491C59.2439 76.4491 57.2354 74.4401 57.2354 71.9621C57.2354 69.4836 59.2439 67.4746 61.7218 67.4746C64.2009 67.4734 66.2094 69.4836 66.2094 71.961C66.2065 74.4384 64.1998 76.4451 61.723 76.4491Z" fill="black"/>
<path d="M83.4481 18.8493H18.8948L17.7594 14.2303C16.7788 10.2009 13.1615 7.37119 9.01545 7.38826H4.5871C3.5826 7.38826 2.76819 8.20268 2.76819 9.20775C2.76819 10.2122 3.5826 11.0267 4.5871 11.0267H9.01545C11.4826 11.0067 13.6401 12.6868 14.2263 15.0839L23.0591 51.1555C24.0448 55.1769 27.665 57.9941 31.8048 57.9622H69.5877C73.7856 57.9958 77.4388 55.0995 78.3642 51.0058L85.2221 21.0307C85.3462 20.498 85.217 19.938 84.8715 19.5129C84.5238 19.0854 83.9996 18.8407 83.4481 18.8493ZM74.818 50.2062C74.2636 52.6404 72.0845 54.3563 69.5877 54.3238H31.8048C29.3411 54.3506 27.1824 52.6779 26.5939 50.2853L19.785 22.4877H81.1654L74.818 50.2062Z" fill="black"/>
<path d="M37.1158 63.8362C32.6283 63.8362 28.9899 67.4734 28.9899 71.961C28.9899 76.4496 32.6277 80.0875 37.1153 80.0875C41.6034 80.0875 45.2412 76.4496 45.2412 71.9621C45.2372 67.4757 41.6017 63.8407 37.1158 63.8362ZM37.1158 76.4491C34.6373 76.4491 32.6283 74.4401 32.6283 71.9621C32.6283 69.4836 34.6373 67.4746 37.1153 67.4746C39.5938 67.4734 41.6028 69.4836 41.6028 71.961C41.6 74.4384 39.5927 76.4451 37.1158 76.4491Z" fill="black"/>
</svg>
