<svg width="88" height="88" viewBox="0 0 88 88" fill="none" xmlns="http://www.w3.org/2000/svg">
<path d="M62.4727 0H25.5273C21.9663 0 19.0667 2.8996 19.0667 6.46067V81.5379C19.0667 85.1004 21.9663 88 25.5273 88H62.4712C66.0338 88 68.9333 85.1004 68.9333 81.5393V6.46067C68.9333 2.8996 66.0337 0 62.4727 0ZM22 11.7333H66V67.4667H22V11.7333ZM25.5273 2.93333H62.4712C64.4175 2.93333 66 4.51587 66 6.46067V8.8H22V6.46067C22 4.51587 23.5825 2.93333 25.5273 2.93333ZM62.4727 85.0667H25.5273C23.5825 85.0667 22 83.4841 22 81.5393V70.4H66V81.5393C66 83.4841 64.4175 85.0667 62.4727 85.0667Z" fill="black"/>
<path d="M44 71.8667C40.7646 71.8667 38.1334 74.4979 38.1334 77.7334C38.1334 80.9688 40.7646 83.6 44 83.6C47.2355 83.6 49.8667 80.9688 49.8667 77.7334C49.8667 74.4979 47.2355 71.8667 44 71.8667ZM44 80.6667C42.3823 80.6667 41.0667 79.3511 41.0667 77.7334C41.0667 76.1156 42.3823 74.8 44 74.8C45.6178 74.8 46.9334 76.1156 46.9334 77.7334C46.9334 79.3511 45.6178 80.6667 44 80.6667Z" fill="black"/>
<path d="M41.0667 7.33336H46.9333C47.7444 7.33336 48.4 6.67776 48.4 5.86669C48.4 5.05562 47.7444 4.40002 46.9333 4.40002H41.0667C40.2556 4.40002 39.6 5.05562 39.6 5.86669C39.6 6.67776 40.2556 7.33336 41.0667 7.33336Z" fill="black"/>
<g clip-path="url(#clip0)">
<path d="M56.375 33.2384C55.9193 33.2384 55.55 32.869 55.55 32.4134V28.1852C55.55 27.7872 55.2262 27.4634 54.8281 27.4634H50.6C50.1443 27.4634 49.775 27.094 49.775 26.6384C49.775 26.1827 50.1443 25.8134 50.6 25.8134H54.8281C56.1359 25.8134 57.2 26.8774 57.2 28.1852V32.4134C57.2 32.869 56.8307 33.2384 56.375 33.2384Z" fill="black"/>
<path d="M31.625 33.2384C31.1693 33.2384 30.8 32.869 30.8 32.4134V28.1852C30.8 26.8774 31.864 25.8134 33.1719 25.8134H37.4C37.8556 25.8134 38.225 26.1827 38.225 26.6384C38.225 27.094 37.8556 27.4634 37.4 27.4634H33.1719C32.7738 27.4634 32.45 27.7872 32.45 28.1852V32.4134C32.45 32.869 32.0806 33.2384 31.625 33.2384Z" fill="black"/>
<path d="M37.4 52.2133H33.1719C31.864 52.2133 30.8 51.1493 30.8 49.8415V45.6133C30.8 45.1577 31.1693 44.7883 31.625 44.7883C32.0806 44.7883 32.45 45.1577 32.45 45.6133V49.8415C32.45 50.2395 32.7738 50.5633 33.1719 50.5633H37.4C37.8556 50.5633 38.225 50.9327 38.225 51.3883C38.225 51.8439 37.8556 52.2133 37.4 52.2133Z" fill="black"/>
<path d="M54.8281 52.2133H50.6C50.1443 52.2133 49.775 51.8439 49.775 51.3883C49.775 50.9327 50.1443 50.5633 50.6 50.5633H54.8281C55.2262 50.5633 55.55 50.2395 55.55 49.8415V45.6133C55.55 45.1577 55.9193 44.7883 56.375 44.7883C56.8307 44.7883 57.2 45.1577 57.2 45.6133V49.8415C57.2 51.1493 56.1359 52.2133 54.8281 52.2133Z" fill="black"/>
<path d="M40.8031 38.1884H36.4719C35.164 38.1884 34.1 37.1244 34.1 35.8165V31.4853C34.1 30.1774 35.164 29.1134 36.4719 29.1134H40.8031C42.1109 29.1134 43.175 30.1774 43.175 31.4853V35.8165C43.175 37.1244 42.1109 38.1884 40.8031 38.1884ZM36.4719 30.7634C36.0738 30.7634 35.75 31.0872 35.75 31.4853V35.8165C35.75 36.2146 36.0738 36.5384 36.4719 36.5384H40.8031C41.2012 36.5384 41.525 36.2146 41.525 35.8165V31.4853C41.525 31.0872 41.2012 30.7634 40.8031 30.7634H36.4719Z" fill="black"/>
<path d="M40.8031 48.9134H36.4719C35.164 48.9134 34.1 47.8493 34.1 46.5415V42.2103C34.1 40.9024 35.164 39.8384 36.4719 39.8384H40.8031C42.1109 39.8384 43.175 40.9024 43.175 42.2103V46.5415C43.175 47.8493 42.1109 48.9134 40.8031 48.9134ZM36.4719 41.4884C36.0738 41.4884 35.75 41.8122 35.75 42.2103V46.5415C35.75 46.9396 36.0738 47.2634 36.4719 47.2634H40.8031C41.2012 47.2634 41.525 46.9396 41.525 46.5415V42.2103C41.525 41.8122 41.2012 41.4884 40.8031 41.4884H36.4719Z" fill="black"/>
<path d="M51.5281 38.1884H47.1969C45.889 38.1884 44.825 37.1244 44.825 35.8165V31.4853C44.825 30.1774 45.889 29.1134 47.1969 29.1134H51.5281C52.8359 29.1134 53.9 30.1774 53.9 31.4853V35.8165C53.9 37.1244 52.8359 38.1884 51.5281 38.1884ZM47.1969 30.7634C46.7988 30.7634 46.475 31.0872 46.475 31.4853V35.8165C46.475 36.2146 46.7988 36.5384 47.1969 36.5384H51.5281C51.9262 36.5384 52.25 36.2146 52.25 35.8165V31.4853C52.25 31.0872 51.9262 30.7634 51.5281 30.7634H47.1969Z" fill="black"/>
<path d="M52.5594 43.9634H50.6V41.179C50.6 40.4398 49.9986 39.8384 49.2594 39.8384H46.1656C45.4264 39.8384 44.825 40.4398 44.825 41.179V44.2728C44.825 45.012 45.4264 45.6134 46.1656 45.6134H48.95V47.5728C48.95 48.312 49.5514 48.9134 50.2906 48.9134H52.5594C53.2986 48.9134 53.9 48.312 53.9 47.5728V45.304C53.9 44.5648 53.2986 43.9634 52.5594 43.9634ZM46.475 41.4884H48.95V43.9634H46.475V41.4884ZM52.25 47.2634H50.6V45.6134H52.25V47.2634Z" fill="black"/>
<path d="M39.05 34.8883H38.225C37.7693 34.8883 37.4 34.5189 37.4 34.0633V33.2383C37.4 32.7827 37.7693 32.4133 38.225 32.4133H39.05C39.5057 32.4133 39.875 32.7827 39.875 33.2383V34.0633C39.875 34.5189 39.5057 34.8883 39.05 34.8883Z" fill="black"/>
<path d="M49.775 34.8883H48.95C48.4943 34.8883 48.125 34.5189 48.125 34.0633V33.2383C48.125 32.7827 48.4943 32.4133 48.95 32.4133H49.775C50.2307 32.4133 50.6 32.7827 50.6 33.2383V34.0633C50.6 34.5189 50.2307 34.8883 49.775 34.8883Z" fill="black"/>
<path d="M39.05 45.6133H38.225C37.7693 45.6133 37.4 45.2439 37.4 44.7883V43.9633C37.4 43.5077 37.7693 43.1383 38.225 43.1383H39.05C39.5057 43.1383 39.875 43.5077 39.875 43.9633V44.7883C39.875 45.2439 39.5057 45.6133 39.05 45.6133Z" fill="black"/>
</g>
<defs>
<clipPath id="clip0">
<rect width="26.4" height="26.4" fill="white" transform="translate(30.8 25.8134)"/>
</clipPath>
</defs>
</svg>
