<svg width="264" height="264" viewBox="0 0 264 264" fill="none" xmlns="http://www.w3.org/2000/svg">
<path d="M73.4224 149.576C70.7664 149.576 68.1904 149.224 65.6944 148.52C63.2304 147.784 61.2464 146.84 59.7424 145.688L62.3824 139.832C63.8224 140.888 65.5344 141.736 67.5184 142.376C69.5024 143.016 71.4864 143.336 73.4704 143.336C75.6784 143.336 77.3104 143.016 78.3664 142.376C79.4224 141.704 79.9504 140.824 79.9504 139.736C79.9504 138.936 79.6304 138.28 78.9904 137.768C78.3824 137.224 77.5824 136.792 76.5904 136.472C75.6304 136.152 74.3184 135.8 72.6544 135.416C70.0944 134.808 67.9984 134.2 66.3664 133.592C64.7344 132.984 63.3264 132.008 62.1424 130.664C60.9904 129.32 60.4144 127.528 60.4144 125.288C60.4144 123.336 60.9424 121.576 61.9984 120.008C63.0544 118.408 64.6384 117.144 66.7504 116.216C68.8944 115.288 71.5024 114.824 74.5744 114.824C76.7184 114.824 78.8144 115.08 80.8624 115.592C82.9104 116.104 84.7024 116.84 86.2384 117.8L83.8384 123.704C80.7344 121.944 77.6304 121.064 74.5264 121.064C72.3504 121.064 70.7344 121.416 69.6784 122.12C68.6544 122.824 68.1424 123.752 68.1424 124.904C68.1424 126.056 68.7344 126.92 69.9184 127.496C71.1344 128.04 72.9744 128.584 75.4384 129.128C77.9984 129.736 80.0944 130.344 81.7264 130.952C83.3584 131.56 84.7504 132.52 85.9024 133.832C87.0864 135.144 87.6784 136.92 87.6784 139.16C87.6784 141.08 87.1344 142.84 86.0464 144.44C84.9904 146.008 83.3904 147.256 81.2464 148.184C79.1024 149.112 76.4944 149.576 73.4224 149.576ZM107.536 115.4C110.512 115.4 113.088 115.896 115.264 116.888C117.472 117.88 119.168 119.288 120.352 121.112C121.536 122.936 122.128 125.096 122.128 127.592C122.128 130.056 121.536 132.216 120.352 134.072C119.168 135.896 117.472 137.304 115.264 138.296C113.088 139.256 110.512 139.736 107.536 139.736H100.768V149H92.9918V115.4H107.536ZM107.104 133.4C109.44 133.4 111.216 132.904 112.432 131.912C113.648 130.888 114.256 129.448 114.256 127.592C114.256 125.704 113.648 124.264 112.432 123.272C111.216 122.248 109.44 121.736 107.104 121.736H100.768V133.4H107.104ZM148.12 141.8H132.52L129.544 149H121.576L136.552 115.4H144.232L159.256 149H151.096L148.12 141.8ZM145.672 135.896L140.344 123.032L135.016 135.896H145.672ZM193.318 149L193.27 128.84L183.382 145.448H179.878L170.038 129.272V149H162.742V115.4H169.174L181.75 136.28L194.134 115.4H200.518L200.614 149H193.318Z" fill="#0D0C1C"/>
<path fill-rule="evenodd" clip-rule="evenodd" d="M211.014 219.641C190.096 238.512 162.39 250 132 250C66.8304 250 14 197.17 14 132C14 101.61 25.4882 73.9035 44.3586 52.986L211.014 219.641ZM219.559 211.105L52.8949 44.4409C73.823 25.5216 101.566 14 132 14C197.17 14 250 66.8304 250 132C250 162.434 238.478 190.177 219.559 211.105ZM264 132C264 204.902 204.902 264 132 264C59.0984 264 0 204.902 0 132C0 59.0984 59.0984 0 132 0C204.902 0 264 59.0984 264 132Z" fill="#C72F2F"/>
</svg>
