<svg width="88" height="88" viewBox="0 0 88 88" fill="none" xmlns="http://www.w3.org/2000/svg">
<path d="M81.125 2.75H6.875C5.78199 2.75326 4.73467 3.18891 3.96179 3.96179C3.18891 4.73467 2.75326 5.78199 2.75 6.875V57.75C2.75326 58.843 3.18891 59.8903 3.96179 60.6632C4.73467 61.4361 5.78199 61.8717 6.875 61.875H21.1887C21.2414 62.0541 21.2216 62.2466 21.1337 62.4112L17.6688 68.1725C17.1952 68.9634 17.0002 69.89 17.1148 70.8047C17.2294 71.7193 17.6471 72.5692 18.3013 73.2188L23.0312 77.9487C23.6808 78.6029 24.5307 79.0206 25.4453 79.1352C26.36 79.2498 27.2866 79.0548 28.0775 78.5813L33.8388 75.1162C33.9488 75.0591 34.0706 75.0281 34.1946 75.0257C34.3187 75.0233 34.4416 75.0496 34.5537 75.1025C34.6656 75.1456 34.766 75.2139 34.8471 75.3022C34.9281 75.3904 34.9878 75.4962 35.0212 75.6113L36.6437 82.1287C36.8675 83.0205 37.3827 83.812 38.1076 84.3775C38.8325 84.943 39.7256 85.2501 40.645 85.25H47.355C48.2744 85.2501 49.1675 84.943 49.8924 84.3775C50.6173 83.812 51.1325 83.0205 51.3562 82.1287L52.9787 75.6113C53.0151 75.4918 53.0788 75.3823 53.1647 75.2917C53.2506 75.201 53.3564 75.1315 53.4737 75.0888C53.5831 75.0415 53.7016 75.0195 53.8206 75.0242C53.9396 75.029 54.056 75.0604 54.1612 75.1162L59.9225 78.5813C60.7143 79.0517 61.6402 79.245 62.5541 79.1304C63.468 79.0159 64.3176 78.6001 64.9688 77.9487L69.6987 73.2188C70.3529 72.5692 70.7706 71.7193 70.8852 70.8047C70.9998 69.89 70.8048 68.9634 70.3313 68.1725L66.8662 62.4112C66.7851 62.2446 66.7656 62.0546 66.8112 61.875H81.125C82.218 61.8717 83.2653 61.4361 84.0382 60.6632C84.8111 59.8903 85.2467 58.843 85.25 57.75V6.875C85.2467 5.78199 84.8111 4.73467 84.0382 3.96179C83.2653 3.18891 82.218 2.75326 81.125 2.75ZM74.25 55.605C74.2498 55.9121 74.1467 56.2102 73.9574 56.452C73.768 56.6937 73.5031 56.8651 73.205 56.9388L66.6875 58.5612C66.1515 58.7039 65.6562 58.9696 65.2409 59.3371C64.8256 59.7047 64.5017 60.1641 64.295 60.6788C64.0846 61.1846 63.9949 61.7326 64.0331 62.2791C64.0713 62.8257 64.2363 63.3558 64.515 63.8275L67.9662 69.5888C68.1271 69.8503 68.1944 70.1588 68.1569 70.4636C68.1194 70.7684 67.9795 71.0514 67.76 71.2663L63.0163 76.01C62.8014 76.2295 62.5184 76.3694 62.2136 76.4069C61.9088 76.4444 61.6003 76.3771 61.3388 76.2162L55.5775 72.765C55.1008 72.4898 54.5673 72.3277 54.018 72.2913C53.4688 72.2549 52.9185 72.3452 52.4097 72.5551C51.9008 72.765 51.447 73.089 51.0832 73.502C50.7193 73.9151 50.4552 74.4062 50.3112 74.9375L48.6888 81.455C48.6151 81.7531 48.4437 82.018 48.202 82.2074C47.9602 82.3967 47.6621 82.4998 47.355 82.5H40.645C40.3379 82.4998 40.0398 82.3967 39.798 82.2074C39.5563 82.018 39.3849 81.7531 39.3112 81.455L37.6888 74.9375C37.5461 74.4015 37.2804 73.9062 36.9129 73.4909C36.5453 73.0756 36.0859 72.7517 35.5713 72.545C35.1349 72.3656 34.668 72.2722 34.1963 72.27C33.5706 72.2681 32.9567 72.4394 32.4225 72.765L26.6612 76.2162C26.3997 76.3771 26.0912 76.4444 25.7864 76.4069C25.4816 76.3694 25.1986 76.2295 24.9837 76.01L20.24 71.2663C20.0205 71.0514 19.8806 70.7684 19.8431 70.4636C19.8056 70.1588 19.8729 69.8503 20.0337 69.5888L23.485 63.8275C23.7602 63.3508 23.9223 62.8173 23.9587 62.268C23.9951 61.7188 23.9048 61.1685 23.6949 60.6597C23.485 60.1508 23.161 59.697 22.748 59.3332C22.3349 58.9693 21.8438 58.7052 21.3125 58.5612L14.795 56.9388C14.4969 56.8651 14.232 56.6937 14.0427 56.452C13.8533 56.2102 13.7502 55.9121 13.75 55.605V48.895C13.7502 48.5879 13.8533 48.2898 14.0427 48.048C14.232 47.8063 14.4969 47.6349 14.795 47.5612L21.3125 45.9388C21.8485 45.7961 22.3438 45.5304 22.7591 45.1629C23.1744 44.7953 23.4983 44.3359 23.705 43.8213C23.9154 43.3154 24.0051 42.7674 23.9669 42.2209C23.9287 41.6743 23.7637 41.1442 23.485 40.6725L20.0337 34.9112C19.8729 34.6497 19.8056 34.3412 19.8431 34.0364C19.8806 33.7316 20.0205 33.4486 20.24 33.2337L24.9837 28.49C25.1986 28.2705 25.4816 28.1306 25.7864 28.0931C26.0912 28.0556 26.3997 28.1229 26.6612 28.2837L32.4225 31.735C32.8992 32.0102 33.4327 32.1723 33.982 32.2087C34.5312 32.2451 35.0815 32.1548 35.5903 31.9449C36.0992 31.735 36.553 31.411 36.9168 30.998C37.2807 30.5849 37.5448 30.0938 37.6888 29.5625L39.3112 23.045C39.3849 22.7469 39.5563 22.482 39.798 22.2927C40.0398 22.1033 40.3379 22.0002 40.645 22H47.355C47.6621 22.0002 47.9602 22.1033 48.202 22.2927C48.4437 22.482 48.6151 22.7469 48.6888 23.045L50.3112 29.5625C50.4539 30.0985 50.7196 30.5938 51.0871 31.0091C51.4547 31.4244 51.9141 31.7483 52.4288 31.955C52.9346 32.1654 53.4826 32.2551 54.0291 32.2169C54.5757 32.1787 55.1058 32.0137 55.5775 31.735L61.3388 28.2837C61.6014 28.1265 61.9091 28.0613 62.2129 28.0987C62.5168 28.1361 62.7995 28.2738 63.0163 28.49L67.76 33.2337C67.9795 33.4486 68.1194 33.7316 68.1569 34.0364C68.1944 34.3412 68.1271 34.6497 67.9662 34.9112L64.515 40.6725C64.2398 41.1492 64.0777 41.6827 64.0413 42.232C64.0049 42.7812 64.0952 43.3315 64.3051 43.8403C64.515 44.3492 64.839 44.803 65.252 45.1668C65.6651 45.5307 66.1562 45.7948 66.6875 45.9388L73.205 47.5612C73.5031 47.6349 73.768 47.8063 73.9574 48.048C74.1467 48.2898 74.2498 48.5879 74.25 48.895V55.605ZM82.5 57.75C82.5 58.1147 82.3551 58.4644 82.0973 58.7223C81.8394 58.9801 81.4897 59.125 81.125 59.125H75.0062C75.6138 58.7599 76.1167 58.244 76.466 57.6272C76.8154 57.0104 76.9993 56.3138 77 55.605V48.895C77.0001 47.9756 76.693 47.0825 76.1275 46.3576C75.562 45.6327 74.7705 45.1175 73.8787 44.8938L67.3613 43.2712C67.1681 43.2188 67.0014 43.0963 66.8938 42.9275C66.88 42.8862 66.8525 42.8175 66.8388 42.7763C66.7915 42.6669 66.7695 42.5484 66.7742 42.4294C66.779 42.3104 66.8104 42.194 66.8662 42.0888L70.3313 36.3275C70.8048 35.5366 70.9998 34.61 70.8852 33.6953C70.7706 32.7807 70.3529 31.9308 69.6987 31.2812L64.9688 26.5512C64.3192 25.8971 63.4693 25.4794 62.5547 25.3648C61.64 25.2502 60.7134 25.4452 59.9225 25.9188L54.1612 29.3838C54.0512 29.4409 53.9294 29.4719 53.8054 29.4743C53.6813 29.4767 53.5584 29.4504 53.4462 29.3975C53.3344 29.3544 53.234 29.2861 53.1529 29.1979C53.0719 29.1096 53.0122 29.0038 52.9787 28.8888L51.3562 22.3713C51.1325 21.4795 50.6173 20.688 49.8924 20.1225C49.1675 19.557 48.2744 19.2499 47.355 19.25H40.645C39.7256 19.2499 38.8325 19.557 38.1076 20.1225C37.3827 20.688 36.8675 21.4795 36.6437 22.3713L35.0212 28.8888C34.9849 29.0083 34.9212 29.1177 34.8353 29.2083C34.7494 29.299 34.6436 29.3685 34.5263 29.4112C34.4169 29.4585 34.2984 29.4805 34.1794 29.4758C34.0604 29.471 33.944 29.4396 33.8388 29.3838L28.0775 25.9188C27.2857 25.4483 26.3598 25.255 25.4459 25.3696C24.532 25.4841 23.6824 25.8999 23.0312 26.5512L18.3013 31.2812C17.6471 31.9308 17.2294 32.7807 17.1148 33.6953C17.0002 34.61 17.1952 35.5366 17.6688 36.3275L21.1337 42.0888C21.1909 42.1988 21.2219 42.3206 21.2243 42.4446C21.2267 42.5687 21.2004 42.6916 21.1475 42.8037C21.1044 42.9156 21.0361 43.016 20.9478 43.0971C20.8596 43.1781 20.7538 43.2378 20.6388 43.2712L14.1213 44.8938C13.2295 45.1175 12.438 45.6327 11.8725 46.3576C11.307 47.0825 10.9999 47.9756 11 48.895V55.605C11.0007 56.3138 11.1846 57.0104 11.534 57.6272C11.8833 58.244 12.3862 58.7599 12.9937 59.125H6.875C6.51033 59.125 6.16059 58.9801 5.90273 58.7223C5.64487 58.4644 5.5 58.1147 5.5 57.75V16.5H82.5V57.75ZM82.5 13.75H5.5V6.875C5.5 6.51033 5.64487 6.16059 5.90273 5.90273C6.16059 5.64487 6.51033 5.5 6.875 5.5H81.125C81.4897 5.5 81.8394 5.64487 82.0973 5.90273C82.3551 6.16059 82.5 6.51033 82.5 6.875V13.75Z" fill="black"/>
<path d="M8.25 9.625C8.25 8.86561 8.86561 8.25 9.625 8.25C10.3844 8.25 11 8.86561 11 9.625C11 10.3844 10.3844 11 9.625 11C8.86561 11 8.25 10.3844 8.25 9.625Z" fill="black"/>
<path d="M13.75 9.625C13.75 8.86561 14.3656 8.25 15.125 8.25C15.8844 8.25 16.5 8.86561 16.5 9.625C16.5 10.3844 15.8844 11 15.125 11C14.3656 11 13.75 10.3844 13.75 9.625Z" fill="black"/>
<path d="M19.25 9.625C19.25 8.86561 19.8656 8.25 20.625 8.25C21.3844 8.25 22 8.86561 22 9.625C22 10.3844 21.3844 11 20.625 11C19.8656 11 19.25 10.3844 19.25 9.625Z" fill="black"/>
<path d="M44 35.75C40.7366 35.75 37.5465 36.7177 34.8331 38.5308C32.1197 40.3438 30.0048 42.9207 28.756 45.9357C27.5071 48.9507 27.1804 52.2683 27.817 55.469C28.4537 58.6697 30.0251 61.6097 32.3327 63.9173C34.6403 66.2248 37.5803 67.7963 40.781 68.4329C43.9817 69.0696 47.2993 68.7428 50.3143 67.494C53.3292 66.2452 55.9062 64.1303 57.7192 61.4169C59.5323 58.7035 60.5 55.5134 60.5 52.25C60.4952 47.8754 58.7553 43.6813 55.662 40.588C52.5687 37.4946 48.3746 35.7547 44 35.75ZM44 66C41.2805 66 38.6221 65.1936 36.3609 63.6827C34.0997 62.1718 32.3373 60.0244 31.2966 57.5119C30.2559 54.9994 29.9836 52.2347 30.5142 49.5675C31.0447 46.9003 32.3543 44.4502 34.2773 42.5273C36.2002 40.6043 38.6502 39.2947 41.3175 38.7642C43.9847 38.2337 46.7494 38.5059 49.2619 39.5467C51.7744 40.5874 53.9218 42.3497 55.4327 44.6109C56.9436 46.8721 57.75 49.5305 57.75 52.25C57.746 55.8955 56.296 59.3905 53.7183 61.9683C51.1405 64.546 47.6455 65.996 44 66Z" fill="black"/>
</svg>
