<svg width="88" height="88" viewBox="0 0 88 88" fill="none" xmlns="http://www.w3.org/2000/svg">
<path d="M87.9154 38.4831L77.7741 7.27468C77.4805 6.37217 76.5111 5.87821 75.6081 6.17125L1.18799 30.3549C0.285308 30.6482 -0.208656 31.618 0.0845595 32.5208L4.88498 47.2931C4.88361 47.322 4.88068 47.3504 4.88068 47.3796V80.1945C4.88068 81.1436 5.65033 81.9132 6.59942 81.9132H84.8504C85.7995 81.9132 86.5691 81.1436 86.5691 80.1945V47.3796C86.5691 46.4305 85.7995 45.6609 84.8504 45.6609H71.3893L86.8122 40.649C87.7147 40.3557 88.2087 39.3859 87.9154 38.4831ZM83.1315 49.0983V78.4758H8.31798V49.0983H17.8384V68.2464C17.8384 69.1955 18.608 69.9651 19.5571 69.9651C20.5062 69.9651 21.2759 69.1955 21.2759 68.2464V49.0983H60.5388H83.1315ZM60.2665 45.6609H7.9689L3.88485 33.093L12.9445 30.149L16.4098 40.6807C16.6478 41.4039 17.32 41.8626 18.0421 41.8626C18.2201 41.8626 18.4013 41.8348 18.5797 41.776C19.4813 41.4792 19.9718 40.5079 19.675 39.6061L16.2137 29.0864L75.0359 9.97154L84.1151 37.9109L60.2665 45.6609Z" fill="#0D0C1C"/>
<path d="M72.4283 17.5051C72.1347 16.6026 71.1652 16.1088 70.2623 16.4017L25.4501 30.964C24.5475 31.2574 24.0535 32.2271 24.3467 33.1299C24.5829 33.8563 25.2564 34.3179 25.9811 34.3179C26.1571 34.3179 26.3362 34.2906 26.5127 34.2333L71.3248 19.671C72.2275 19.3776 72.7216 18.4079 72.4283 17.5051Z" fill="#0D0C1C"/>
<path d="M64.8708 28.6691L73.3531 25.9128C74.2558 25.6194 74.7498 24.6497 74.4565 23.7469C74.163 22.8442 73.1934 22.3504 72.2906 22.6434L63.8083 25.3998C62.9056 25.6932 62.4117 26.6629 62.7049 27.5657C62.941 28.2921 63.6146 28.7537 64.3392 28.7537C64.5152 28.7537 64.6945 28.7264 64.8708 28.6691Z" fill="#0D0C1C"/>
<path d="M43.1629 32.1089L27.4786 37.2056C26.5759 37.499 26.0818 38.4687 26.3752 39.3716C26.6113 40.0979 27.2849 40.5596 28.0095 40.5596C28.1853 40.5596 28.3646 40.5322 28.5411 40.475L44.2254 35.3783C45.1281 35.0849 45.6221 34.1152 45.3288 33.2123C45.0351 32.3096 44.0656 31.8158 43.1629 32.1089Z" fill="#0D0C1C"/>
<path d="M27.7668 55.4571C27.7668 56.4062 28.5365 57.1759 29.4856 57.1759H76.6043C77.5534 57.1759 78.323 56.4062 78.323 55.4571C78.323 54.5081 77.5534 53.7384 76.6043 53.7384H29.4856C28.5365 53.7384 27.7668 54.5079 27.7668 55.4571Z" fill="#0D0C1C"/>
<path d="M60.1959 60.3275H30.897C29.2108 60.3275 27.8435 61.0972 27.8435 62.0462C27.8435 62.9953 29.2108 63.765 30.897 63.765H60.1959C61.882 63.765 63.2494 62.9953 63.2494 62.0462C63.2494 61.0972 61.882 60.3275 60.1959 60.3275Z" fill="#0D0C1C"/>
</svg>
