<svg width="88" height="88" viewBox="0 0 88 88" fill="none" xmlns="http://www.w3.org/2000/svg">
<g clip-path="url(#clip0)">
<path d="M84.2181 58.6309H76.996C74.9106 58.6309 73.2141 60.3275 73.2141 62.4128V72.2177H14.7859V62.4128C14.7859 60.3275 13.0894 58.6309 11.004 58.6309H3.78192C1.69659 58.6309 0 60.3275 0 62.4128V76.4313C0 81.3519 4.00348 85.3561 8.92474 85.3561H79.0753C83.9965 85.3561 88 81.3526 88 76.4313V62.4128C88 60.3275 86.3034 58.6309 84.2181 58.6309ZM84.5625 76.4313C84.5625 79.4566 82.1012 81.9186 79.0753 81.9186H8.92474C5.8988 81.9186 3.4375 79.4566 3.4375 76.4313V62.4128C3.4375 62.2234 3.59192 62.0684 3.78192 62.0684H11.004C11.194 62.0684 11.3484 62.2228 11.3484 62.4128V73.9365C11.3484 74.8851 12.1179 75.6552 13.0672 75.6552H74.9328C75.8821 75.6552 76.6516 74.8851 76.6516 73.9365V62.4128C76.6516 62.2234 76.806 62.0684 76.996 62.0684H84.2181C84.4081 62.0684 84.5625 62.2228 84.5625 62.4128V76.4313Z" fill="black"/>
<path d="M20.4464 34.1568H23.5771V54.3112C23.5771 55.2605 24.3465 56.0299 25.2958 56.0299H32.716C33.6653 56.0299 34.4347 55.2605 34.4347 54.3112V34.1568H37.5654C39.3198 34.1568 40.8874 33.1779 41.6562 31.6008C42.4256 30.0244 42.2322 28.1862 41.1526 26.8038L32.5931 15.8441C30.7717 13.5123 27.2429 13.5083 25.4187 15.8441L16.8592 26.8038C15.7796 28.1862 15.5869 30.0244 16.3556 31.6015C17.1251 33.1779 18.6927 34.1568 20.4464 34.1568ZM19.5689 28.92L28.1284 17.9596C28.4191 17.587 28.8032 17.5313 29.0059 17.5313C29.2093 17.5313 29.5934 17.587 29.8841 17.9596L38.4436 28.92C39.0149 29.6511 38.4973 30.7193 37.5654 30.7193H32.716C31.7667 30.7193 30.9972 31.4887 30.9972 32.438V52.5924H27.0146V32.438C27.0146 31.4887 26.2452 30.7193 25.2958 30.7193H20.4464C19.8187 30.7193 19.5373 30.2822 19.4454 30.0942C19.3534 29.9056 19.1822 29.4148 19.5689 28.92Z" fill="black"/>
<path d="M55.4069 54.2803C56.2756 55.3921 57.5828 56.0299 58.9941 56.0299C60.4047 56.0299 61.7125 55.3921 62.5813 54.2803L71.1408 43.3199C72.2204 41.9375 72.4131 40.0992 71.6444 38.5228C70.8749 36.9464 69.3073 35.9669 67.5536 35.9669H64.4229V15.8125C64.4229 14.8638 63.6535 14.0938 62.7042 14.0938H55.284C54.3347 14.0938 53.5653 14.8638 53.5653 15.8125V35.9669H50.4346C48.6802 35.9669 47.1126 36.9464 46.3438 38.5228C45.5744 40.0992 45.7678 41.9375 46.8474 43.3199L55.4069 54.2803ZM49.4329 40.0301C49.5249 39.8421 49.8062 39.4044 50.4346 39.4044H55.284C56.2333 39.4044 57.0028 38.6349 57.0028 37.6856V17.5312H60.9848V37.6856C60.9848 38.6349 61.7548 39.4044 62.7035 39.4044H67.5529C68.1813 39.4044 68.4627 39.8421 68.5546 40.0301C68.6466 40.2181 68.8178 40.7089 68.4311 41.2043L59.8716 52.1641C59.5809 52.5367 59.1968 52.5924 58.9941 52.5924C58.7907 52.5924 58.4066 52.5367 58.1159 52.1641L49.5564 41.2043C49.1697 40.7089 49.3416 40.2181 49.4329 40.0301Z" fill="black"/>
<path d="M64.2557 58.8538H23.7443C20.9459 58.8538 18.6686 61.1304 18.6686 63.9294C18.6686 66.7278 20.9459 69.0051 23.7443 69.0051H64.2557C67.0541 69.0051 69.3314 66.7278 69.3314 63.9294C69.3314 61.1304 67.0541 58.8538 64.2557 58.8538ZM64.2557 65.567H23.7443C22.8412 65.567 22.1061 64.8325 22.1061 63.9294C22.1061 63.0258 22.8412 62.2913 23.7443 62.2913H64.2557C65.1588 62.2913 65.8939 63.0258 65.8939 63.9294C65.8939 64.8325 65.1588 65.567 64.2557 65.567Z" fill="black"/>
</g>
<defs>
<clipPath id="clip0">
<rect width="88" height="88" fill="white"/>
</clipPath>
</defs>
</svg>
